<svg width="131" height="24" viewBox="0 0 131 24" fill="none" xmlns="http://www.w3.org/2000/svg">
<path d="M9.5554 6.69318V9.33523H0V6.69318H9.5554ZM2.62003 23.6023V4.73366C2.62003 3.67685 2.85121 2.79983 3.31357 2.10263C3.77592 1.39808 4.38873 0.873344 5.15199 0.52841C5.91525 0.176137 6.74456 0 7.63992 0C8.30043 0 8.86553 0.0550431 9.33523 0.165129C9.80492 0.267875 10.1535 0.363282 10.381 0.45135L9.61044 3.11541C9.45632 3.07138 9.25817 3.02001 9.01598 2.96129C8.77379 2.89524 8.48023 2.86222 8.1353 2.86222C7.33535 2.86222 6.7629 3.06037 6.41797 3.45668C6.08037 3.85298 5.91158 4.42543 5.91158 5.17401V23.6023H2.62003Z" fill="black"/>
<path d="M16.4277 23.9766C15.3562 23.9766 14.3874 23.7784 13.5214 23.3821C12.6554 22.9785 11.9692 22.395 11.4628 21.6317C10.9638 20.8685 10.7143 19.9328 10.7143 18.8246C10.7143 17.8705 10.8977 17.0852 11.2647 16.4688C11.6316 15.8523 12.127 15.3642 12.7508 15.0046C13.3747 14.645 14.0719 14.3735 14.8425 14.19C15.6131 14.0065 16.3983 13.8671 17.1983 13.7717C18.2111 13.6542 19.033 13.5588 19.6642 13.4854C20.2953 13.4047 20.754 13.2763 21.0403 13.1001C21.3265 12.924 21.4696 12.6378 21.4696 12.2415V12.1644C21.4696 11.203 21.198 10.4581 20.655 9.92969C20.1192 9.40128 19.3193 9.13707 18.2551 9.13707C17.1469 9.13707 16.2736 9.38293 15.6351 9.87465C15.0039 10.359 14.5672 10.8984 14.3251 11.4929L11.2317 10.7884C11.5986 9.76089 12.1344 8.93158 12.8389 8.30043C13.5508 7.66193 14.3691 7.19957 15.2938 6.91335C16.2185 6.61979 17.1909 6.47301 18.2111 6.47301C18.8863 6.47301 19.6018 6.55374 20.3577 6.7152C21.121 6.86932 21.8329 7.15554 22.4934 7.57386C23.1612 7.99219 23.708 8.59032 24.1337 9.36825C24.5593 10.1389 24.7721 11.1406 24.7721 12.3736V23.6023H21.5577V21.2905H21.4256C21.2127 21.7161 20.8935 22.1345 20.4678 22.5455C20.0422 22.9564 19.4954 23.2977 18.8275 23.5692C18.1597 23.8408 17.3597 23.9766 16.4277 23.9766ZM17.1432 21.3345C18.0533 21.3345 18.8312 21.1547 19.477 20.7951C20.1302 20.4355 20.6256 19.9658 20.9632 19.386C21.3081 18.7989 21.4806 18.1714 21.4806 17.5036V15.3239C21.3632 15.4413 21.1357 15.5514 20.7981 15.6541C20.4678 15.7495 20.0899 15.8339 19.6642 15.9073C19.2385 15.9734 18.8239 16.0357 18.4202 16.0945C18.0166 16.1458 17.679 16.1899 17.4074 16.2266C16.769 16.3073 16.1855 16.4431 15.6571 16.6339C15.136 16.8247 14.7177 17.0999 14.4021 17.4595C14.0939 17.8118 13.9398 18.2815 13.9398 18.8686C13.9398 19.6832 14.2407 20.2997 14.8425 20.718C15.4443 21.129 16.2112 21.3345 17.1432 21.3345Z" fill="black"/>
<path d="M35.3488 23.9435C33.7122 23.9435 32.3031 23.5729 31.1215 22.8317C29.9473 22.0831 29.0446 21.052 28.4134 19.7383C27.7823 18.4246 27.4667 16.9201 27.4667 15.2248C27.4667 13.5075 27.7896 11.992 28.4355 10.6783C29.0813 9.35725 29.9913 8.32611 31.1656 7.58487C32.3398 6.84363 33.7232 6.47301 35.3158 6.47301C36.6001 6.47301 37.745 6.71153 38.7504 7.18857C39.7559 7.65826 40.5668 8.31877 41.1833 9.1701C41.8071 10.0214 42.1778 11.0159 42.2952 12.1534H39.0917C38.9156 11.3608 38.5119 10.6783 37.8808 10.1058C37.257 9.53338 36.4203 9.24716 35.3708 9.24716C34.4534 9.24716 33.6498 9.48935 32.96 9.97372C32.2774 10.4508 31.7453 11.1333 31.3637 12.0213C30.9821 12.902 30.7913 13.9441 30.7913 15.1477C30.7913 16.3807 30.9784 17.4448 31.3527 18.3402C31.727 19.2356 32.2554 19.9291 32.9379 20.4208C33.6278 20.9125 34.4388 21.1584 35.3708 21.1584C35.9946 21.1584 36.5597 21.0446 37.0661 20.8171C37.5799 20.5823 38.0092 20.2483 38.3541 19.8153C38.7064 19.3823 38.9523 18.8613 39.0917 18.2521H42.2952C42.1778 19.3456 41.8218 20.3217 41.2274 21.1804C40.6329 22.0391 39.8366 22.7143 38.8385 23.206C37.8477 23.6977 36.6845 23.9435 35.3488 23.9435Z" fill="black"/>
<path d="M52.1728 23.9435C50.5068 23.9435 49.0721 23.5876 47.8685 22.8757C46.6722 22.1565 45.7475 21.1474 45.0943 19.8484C44.4485 18.542 44.1256 17.0118 44.1256 15.2578C44.1256 13.5258 44.4485 11.9993 45.0943 10.6783C45.7475 9.35725 46.6575 8.32611 47.8244 7.58487C48.9987 6.84363 50.3711 6.47301 51.9416 6.47301C52.8957 6.47301 53.8204 6.6308 54.7158 6.94638C55.6111 7.26196 56.4148 7.75734 57.1266 8.43253C57.8385 9.10772 58.4 9.98473 58.8109 11.0636C59.2219 12.1351 59.4274 13.4377 59.4274 14.9716V16.1385H45.986V13.6726H56.2019C56.2019 12.8066 56.0258 12.0397 55.6735 11.3718C55.3212 10.6966 54.8259 10.1645 54.1874 9.77557C53.5562 9.3866 52.815 9.19212 51.9636 9.19212C51.0389 9.19212 50.2316 9.41963 49.5418 9.87465C48.8592 10.3223 48.3308 10.9094 47.9565 11.636C47.5896 12.3552 47.4061 13.1368 47.4061 13.9808V15.9073C47.4061 17.0375 47.6043 17.9989 48.0006 18.7915C48.4042 19.5842 48.9657 20.1896 49.6849 20.608C50.4041 21.0189 51.2444 21.2244 52.2058 21.2244C52.8296 21.2244 53.3984 21.1364 53.9121 20.9602C54.4259 20.7768 54.8699 20.5052 55.2442 20.1456C55.6185 19.786 55.9047 19.342 56.1028 18.8136L59.2183 19.375C58.9687 20.2924 58.521 21.096 57.8752 21.7859C57.2367 22.4684 56.4331 23.0005 55.4643 23.3821C54.5029 23.7564 53.4058 23.9435 52.1728 23.9435Z" fill="black"/>
<path d="M62.4137 23.6023V1.05682H65.7052V9.43431H65.9034C66.0942 9.08203 66.3694 8.67472 66.729 8.21236C67.0887 7.75 67.5877 7.34635 68.2262 7.00142C68.8647 6.64915 69.7087 6.47301 70.7582 6.47301C72.1232 6.47301 73.3415 6.81795 74.413 7.50781C75.4845 8.19768 76.3248 9.19212 76.9339 10.4911C77.5504 11.7901 77.8587 13.3533 77.8587 15.1808C77.8587 17.0082 77.5541 18.575 76.9449 19.8814C76.3358 21.1804 75.4992 22.1822 74.435 22.8867C73.3708 23.5839 72.1562 23.9325 70.7912 23.9325C69.7637 23.9325 68.9234 23.7601 68.2702 23.4151C67.6244 23.0702 67.118 22.6665 66.7511 22.2042C66.3841 21.7418 66.1016 21.3308 65.9034 20.9712H65.6282V23.6023H62.4137ZM65.6392 15.1477C65.6392 16.3366 65.8117 17.3788 66.1566 18.2741C66.5015 19.1695 67.0006 19.8704 67.6538 20.3768C68.3069 20.8758 69.1069 21.1254 70.0536 21.1254C71.037 21.1254 71.859 20.8648 72.5195 20.3438C73.18 19.8153 73.6791 19.0998 74.0167 18.1971C74.3616 17.2944 74.5341 16.2779 74.5341 15.1477C74.5341 14.0322 74.3653 13.0304 74.0277 12.1424C73.6974 11.2544 73.1984 10.5535 72.5305 10.0398C71.87 9.52604 71.0444 9.26918 70.0536 9.26918C69.0995 9.26918 68.2923 9.51503 67.6317 10.0067C66.9786 10.4985 66.4832 11.1847 66.1456 12.0653C65.808 12.946 65.6392 13.9735 65.6392 15.1477Z" fill="black"/>
<path d="M87.7473 23.9435C86.1621 23.9435 84.7786 23.5803 83.5971 22.8537C82.4155 22.1271 81.4981 21.1107 80.8449 19.8043C80.1918 18.498 79.8652 16.9715 79.8652 15.2248C79.8652 13.4708 80.1918 11.9369 80.8449 10.6232C81.4981 9.30954 82.4155 8.28942 83.5971 7.56286C84.7786 6.83629 86.1621 6.47301 87.7473 6.47301C89.3325 6.47301 90.7159 6.83629 91.8975 7.56286C93.0791 8.28942 93.9965 9.30954 94.6496 10.6232C95.3028 11.9369 95.6294 13.4708 95.6294 15.2248C95.6294 16.9715 95.3028 18.498 94.6496 19.8043C93.9965 21.1107 93.0791 22.1271 91.8975 22.8537C90.7159 23.5803 89.3325 23.9435 87.7473 23.9435ZM87.7583 21.1804C88.7858 21.1804 89.6371 20.9089 90.3123 20.3658C90.9875 19.8227 91.4865 19.0998 91.8094 18.1971C92.1397 17.2944 92.3048 16.3 92.3048 15.2138C92.3048 14.1349 92.1397 13.1442 91.8094 12.2415C91.4865 11.3314 90.9875 10.6012 90.3123 10.0508C89.6371 9.50036 88.7858 9.22514 87.7583 9.22514C86.7235 9.22514 85.8648 9.50036 85.1823 10.0508C84.5071 10.6012 84.0044 11.3314 83.6741 12.2415C83.3512 13.1442 83.1898 14.1349 83.1898 15.2138C83.1898 16.3 83.3512 17.2944 83.6741 18.1971C84.0044 19.0998 84.5071 19.8227 85.1823 20.3658C85.8648 20.9089 86.7235 21.1804 87.7583 21.1804Z" fill="black"/>
<path d="M105.496 23.9435C103.911 23.9435 102.527 23.5803 101.346 22.8537C100.164 22.1271 99.2468 21.1107 98.5937 19.8043C97.9405 18.498 97.6139 16.9715 97.6139 15.2248C97.6139 13.4708 97.9405 11.9369 98.5937 10.6232C99.2468 9.30954 100.164 8.28942 101.346 7.56286C102.527 6.83629 103.911 6.47301 105.496 6.47301C107.081 6.47301 108.465 6.83629 109.646 7.56286C110.828 8.28942 111.745 9.30954 112.398 10.6232C113.052 11.9369 113.378 13.4708 113.378 15.2248C113.378 16.9715 113.052 18.498 112.398 19.8043C111.745 21.1107 110.828 22.1271 109.646 22.8537C108.465 23.5803 107.081 23.9435 105.496 23.9435ZM105.507 21.1804C106.534 21.1804 107.386 20.9089 108.061 20.3658C108.736 19.8227 109.235 19.0998 109.558 18.1971C109.888 17.2944 110.054 16.3 110.054 15.2138C110.054 14.1349 109.888 13.1442 109.558 12.2415C109.235 11.3314 108.736 10.6012 108.061 10.0508C107.386 9.50036 106.534 9.22514 105.507 9.22514C104.472 9.22514 103.614 9.50036 102.931 10.0508C102.256 10.6012 101.753 11.3314 101.423 12.2415C101.1 13.1442 100.938 14.1349 100.938 15.2138C100.938 16.3 101.1 17.2944 101.423 18.1971C101.753 19.0998 102.256 19.8227 102.931 20.3658C103.614 20.9089 104.472 21.1804 105.507 21.1804Z" fill="black"/>
<path d="M119.15 17.8668L119.128 13.8487H119.7L126.437 6.69318H130.378L122.694 14.8395H122.177L119.15 17.8668ZM116.122 23.6023V1.05682H119.414V23.6023H116.122ZM126.8 23.6023L120.746 15.5661L123.014 13.2653L130.841 23.6023H126.8Z" fill="black"/>
</svg>
