<svg width="16" height="13" viewBox="0 0 16 13" fill="none" xmlns="http://www.w3.org/2000/svg">
<path d="M12 0H4C1.6 0 0 1.14706 0 3.82353V9.17647C0 11.8529 1.6 13 4 13H12C14.4 13 16 11.8529 16 9.17647V3.82353C16 1.14706 14.4 0 12 0ZM12.376 4.65706L9.872 6.56882C9.344 6.97412 8.672 7.17294 8 7.17294C7.328 7.17294 6.648 6.97412 6.128 6.56882L3.624 4.65706C3.368 4.45824 3.328 4.09118 3.528 3.84647C3.736 3.60176 4.112 3.55588 4.368 3.75471L6.872 5.66647C7.48 6.13294 8.512 6.13294 9.12 5.66647L11.624 3.75471C11.88 3.55588 12.264 3.59412 12.464 3.84647C12.672 4.09118 12.632 4.45824 12.376 4.65706Z" fill="white"/>
</svg>
