<svg width="182" height="27" viewBox="0 0 182 27" fill="none" xmlns="http://www.w3.org/2000/svg">
<path d="M87 13.5815C87 6.08179 80.956 0 73.5 0C66.044 0 60 6.08179 60 13.5815C60 20.3614 64.9369 25.9814 71.3913 27V17.5065H67.9623V13.5815H71.3913V10.5908C71.3913 7.18597 73.4055 5.30629 76.4902 5.30629C77.9671 5.30629 79.5115 5.57113 79.5115 5.57113V8.91353H77.8105C76.1325 8.91353 75.61 9.96066 75.61 11.035V13.5828H79.3536L78.7555 17.5079H75.61V26.9986C82.063 25.98 87 20.3614 87 13.5828V13.5815Z" fill="white"/>
<path fill-rule="evenodd" clip-rule="evenodd" d="M108.119 4.07295C107 5.94945 107 8.4645 107 13.5C107 18.5342 107 21.0506 108.119 22.9271C108.861 24.1726 109.932 25.2059 111.224 25.9214C113.17 27 115.778 27 121 27C126.221 27 128.83 27 130.776 25.9214C132.068 25.2059 133.139 24.1726 133.881 22.9271C135 21.0506 135 18.5355 135 13.5C135 8.46585 135 5.94945 133.881 4.07295C133.139 2.82739 132.068 1.7941 130.776 1.07865C128.83 0 126.222 0 121 0C115.779 0 113.17 0 111.224 1.07865C109.932 1.7941 108.861 2.82739 108.119 4.07295ZM126.869 24.219C125.473 24.3405 123.66 24.3432 121 24.3432C118.34 24.3432 116.527 24.3405 115.131 24.219C113.773 24.1016 113.08 23.8869 112.594 23.6183C111.726 23.137 111.005 22.4419 110.506 21.6041C110.226 21.1356 110.004 20.4674 109.883 19.1579C109.757 17.8119 109.754 16.0637 109.754 13.4987C109.754 10.9337 109.757 9.1854 109.883 7.83945C110.004 6.52995 110.227 5.8617 110.506 5.39325C111.005 4.5554 111.726 3.86033 112.594 3.37905C113.08 3.10905 113.773 2.89575 115.131 2.7783C116.527 2.6568 118.34 2.6541 121 2.6541C123.66 2.6541 125.473 2.6568 126.869 2.7783C128.227 2.89575 128.92 3.1104 129.404 3.37905C130.274 3.861 130.995 4.55625 131.494 5.39325C131.773 5.8617 131.996 6.52995 132.117 7.83945C132.243 9.1854 132.246 10.9337 132.246 13.4987C132.246 16.0637 132.243 17.8119 132.117 19.1579C131.996 20.4674 131.773 21.1356 131.494 21.6027C130.995 22.441 130.275 23.1366 129.406 23.6183C128.92 23.8869 128.227 24.1016 126.869 24.219ZM126.415 6.45975C126.415 5.97836 126.614 5.51669 126.967 5.1763C127.32 4.83591 127.798 4.64468 128.297 4.64468C128.797 4.64468 129.275 4.83591 129.628 5.1763C129.981 5.51669 130.18 5.97836 130.18 6.45975C130.18 6.94096 129.982 7.40246 129.629 7.74273C129.276 8.08299 128.797 8.27415 128.298 8.27415C127.799 8.27415 127.321 8.08299 126.968 7.74273C126.615 7.40246 126.417 6.94096 126.417 6.45975H126.415ZM121 6.45975C120.041 6.45975 119.092 6.64182 118.207 6.99555C117.321 7.34929 116.516 7.86777 115.838 8.5214C115.161 9.17502 114.623 9.95098 114.256 10.805C113.889 11.659 113.7 12.5743 113.7 13.4987C113.7 14.423 113.889 15.3383 114.256 16.1923C114.623 17.0463 115.161 17.8223 115.838 18.4759C116.516 19.1295 117.321 19.648 118.207 20.0017C119.092 20.3555 120.041 20.5376 121 20.5376C122.936 20.5376 124.793 19.7959 126.162 18.4757C127.531 17.1555 128.3 15.365 128.3 13.498C128.3 11.631 127.531 9.84042 126.162 8.52024C124.793 7.20007 122.936 6.4584 121 6.4584V6.45975ZM116.64 13.5C116.64 12.9479 116.753 12.4013 116.972 11.8912C117.191 11.3812 117.512 10.9178 117.917 10.5274C118.322 10.137 118.803 9.82737 119.332 9.6161C119.861 9.40484 120.427 9.2961 121 9.2961C121.573 9.2961 122.139 9.40484 122.668 9.6161C123.197 9.82737 123.678 10.137 124.083 10.5274C124.488 10.9178 124.809 11.3812 125.028 11.8912C125.247 12.4013 125.36 12.9479 125.36 13.5C125.36 14.6149 124.9 15.6842 124.083 16.4726C123.265 17.261 122.156 17.7039 121 17.7039C119.844 17.7039 118.735 17.261 117.917 16.4726C117.1 15.6842 116.64 14.6149 116.64 13.5Z" fill="white"/>
<path d="M182 4.70588C180.992 5.18188 179.922 5.49673 178.825 5.63992C179.98 4.9109 180.842 3.76591 181.251 2.4189C180.166 3.09753 178.979 3.57799 177.741 3.83977C176.721 2.67647 175.289 2 173.664 2C170.629 2 168.152 4.59691 168.152 7.80378C168.152 8.26372 168.203 8.70951 168.293 9.12983C166.093 9.01295 163.94 8.41303 161.975 7.3689C160.01 6.32477 158.276 4.85969 156.885 3.06848C156.392 3.95074 156.134 4.9547 156.135 5.97674C156.135 7.99341 157.103 9.77941 158.6 10.7941C157.685 10.7941 156.832 10.5238 156.084 10.1176V10.1587C156.083 11.4995 156.525 12.7993 157.334 13.8376C158.144 14.8759 159.271 15.5886 160.524 15.8549C159.712 16.0874 158.859 16.1194 158.033 15.9483C158.384 17.1019 159.07 18.1114 159.996 18.8349C160.922 19.5584 162.041 19.9594 163.196 19.9817C161.238 21.6053 158.812 22.4827 156.316 22.4696C155.877 22.4696 155.439 22.4427 155 22.3889C157.532 24.0963 160.481 25.0027 163.491 25C173.662 25 179.251 16.1521 179.251 8.48025C179.251 8.22268 179.251 7.97926 179.238 7.72311C180.325 6.90115 181.261 5.87878 182 4.70588Z" fill="white"/>
<line opacity="0.2" x1="8.74228e-08" y1="13" x2="45" y2="13" stroke="white" stroke-width="2"/>
</svg>
