<svg width="23" height="27" viewBox="0 0 23 27" fill="none" xmlns="http://www.w3.org/2000/svg">
<path d="M2.70588 1.78907e-06C3.18188 1.00791 3.49672 2.07821 3.63992 3.1752C2.9109 2.02009 1.7659 1.15772 0.418901 0.749252C1.09753 1.83403 1.57799 3.02093 1.83977 4.25925C0.676469 5.2785 -8.86867e-07 6.71085 -8.15818e-07 8.33625C-6.83163e-07 11.3711 2.59691 13.8483 5.80378 13.8483C6.26372 13.8483 6.70951 13.797 7.12983 13.7066C7.01295 15.907 6.41303 18.0595 5.3689 20.0248C4.32477 21.9901 2.85969 23.7244 1.06848 25.1154C1.95074 25.6076 2.9547 25.8662 3.97674 25.8646C5.99341 25.8646 7.77941 24.8967 8.79412 23.3996C8.79412 24.3148 8.52381 25.168 8.11764 25.9159L8.15869 25.9159C9.49951 25.9168 10.7993 25.4751 11.8376 24.6658C12.8759 23.8564 13.5886 22.7294 13.8549 21.4758C14.0874 22.288 14.1194 23.1406 13.9483 23.9665C15.1019 23.6162 16.1114 22.9298 16.8349 22.0038C17.5584 21.0778 17.9594 19.9588 17.9817 18.8041C19.6053 20.7616 20.4827 23.1877 20.4696 25.6837C20.4696 26.1225 20.4427 26.5612 20.3889 27C22.0963 24.4675 23.0027 21.5195 23 18.5085C23 8.3376 14.1521 2.7486 6.48025 2.7486C6.22268 2.7486 5.97926 2.7486 5.72311 2.7621C4.90114 1.67459 3.87878 0.738676 2.70588 1.78907e-06Z" fill="black"/>
</svg>
