<svg width="139" height="14" viewBox="0 0 139 14" fill="none" xmlns="http://www.w3.org/2000/svg">
<path fill-rule="evenodd" clip-rule="evenodd" d="M73.6585 0.193048C70.042 0.966507 67.9055 4.13167 68.4002 7.9836C68.8199 11.2514 70.8429 13.2997 74.2003 13.8562C76.6934 14.2694 79.0906 13.7824 80.7872 12.5181C82.3539 11.3507 83.143 9.74697 83.284 7.44428C83.5146 3.68152 81.4752 0.932582 77.9009 0.187974C76.6884 -0.064578 74.853 -0.0624034 73.6585 0.193048ZM116.631 0.127663C114.71 0.4456 113.373 1.31315 112.738 2.65449C112.133 3.93102 112.308 5.97493 113.095 6.84161C113.473 7.25711 114.331 7.75859 114.982 7.94475C115.3 8.0355 116.675 8.23296 118.037 8.3836C121.006 8.71183 121.46 8.89377 121.46 9.7564C121.46 10.1976 121.374 10.3757 121.044 10.6181C120.687 10.8807 120.385 10.9298 118.905 10.9675C117.348 11.007 117.119 10.9793 116.519 10.6776C116.082 10.4579 115.783 10.1826 115.644 9.87267L115.433 9.40149H113.767H112.101L112.185 9.87267C112.553 11.9453 113.71 13.1616 115.83 13.7069C117.003 14.0085 119.98 14.0427 121.091 13.7674C122.723 13.3633 123.803 12.6465 124.397 11.5736C125.555 9.48282 124.612 6.85567 122.452 6.15035C122.038 6.01538 120.631 5.78225 119.324 5.63234C116.258 5.28063 115.451 4.9163 115.688 3.98901C115.849 3.35821 116.802 2.96982 118.215 2.95894C118.864 2.95401 119.572 2.99881 119.789 3.05869C120.306 3.20106 121.082 3.85027 121.248 4.2781C121.374 4.60532 121.436 4.61721 123.005 4.61721H124.631L124.629 4.14603C124.628 3.54756 124.067 2.35699 123.475 1.69401C122.906 1.05654 121.444 0.341071 120.29 0.134477C119.303 -0.0421064 117.675 -0.045151 116.631 0.127663ZM8.40545 2.59476C6.33684 3.8652 3.59979 5.5413 2.32308 6.3194L0.00166854 7.73424L4.60994e-05 10.6856C-0.00142884 13.1608 0.0317573 13.6243 0.205505 13.5587C0.369224 13.497 7.63656 9.09283 11.5828 6.66386L12.3264 6.20617L15.5651 6.24531C19.9329 6.29808 19.9302 6.25184 15.7014 8.72125C13.3118 10.1167 12.4851 10.6722 12.3753 10.9561C12.2949 11.1638 12.2483 11.8613 12.2716 12.5061L12.314 13.6783H16.0751H19.8363V7.11272C19.8363 1.43435 19.8063 0.528528 19.615 0.409646C19.4904 0.332372 17.8151 0.275106 15.7802 0.278585L12.1666 0.284964L8.40545 2.59476ZM31.0712 0.372821C30.8969 0.65089 25.9573 13.3952 25.9573 13.567C25.9573 13.7191 26.3248 13.7514 27.6893 13.7192L29.4213 13.6783L29.8662 12.446L30.311 11.2137H33.247H36.1832L36.5643 12.3042C36.7741 12.9042 36.9993 13.4749 37.0649 13.5728C37.1975 13.7707 40.4893 13.8351 40.6096 13.6421C40.647 13.5822 39.5042 10.5649 38.0702 6.93686L35.463 0.340346L33.3023 0.300332C32.114 0.278295 31.11 0.310915 31.0712 0.372821ZM41.211 0.463723C41.1667 0.576806 41.1514 2.81339 41.1768 5.43401C41.2215 10.0511 41.2336 10.2218 41.5633 10.9381C42.2551 12.4402 43.7976 13.4707 45.9187 13.8478C48.7882 14.358 51.8791 13.4947 53.0964 11.8429C53.9217 10.723 53.9812 10.2647 53.9812 5.02111V0.258288L52.3219 0.299317L50.6626 0.340346L50.5885 4.83467C50.5406 7.74265 50.455 9.45687 50.346 9.69145C49.9494 10.5452 49.017 10.9968 47.6538 10.9954C46.4787 10.9942 45.8565 10.7844 45.2725 10.1925L44.7628 9.67579L44.689 5.00807L44.6153 0.340346L42.9532 0.299317C41.6268 0.266552 41.275 0.299752 41.211 0.463723ZM55.7036 0.362963C55.6486 0.416895 55.6036 1.06828 55.6036 1.81043V3.15974L57.7792 3.19975L59.9547 3.23991L59.9935 8.50016L60.0321 13.7603L61.6897 13.7194L63.3471 13.6783L63.3857 8.42288L63.4245 3.16742H65.6405H67.8563L67.8141 1.75388L67.7719 0.340346L61.7878 0.302507C58.4964 0.28163 55.7585 0.308886 55.7036 0.362963ZM85.25 7.02819V13.7884L89.3429 13.7063C91.5941 13.6612 93.7439 13.5512 94.1204 13.4618C95.8063 13.0613 96.9691 11.9335 97.4248 10.257C98.0034 8.12756 97.8214 4.40351 97.0598 2.78917C96.0882 0.729468 94.5238 0.275251 88.3842 0.270321L85.25 0.267857V7.02819ZM99.7727 0.447195C99.7333 0.547955 99.7186 3.56611 99.7397 7.15433L99.7782 13.6783H105.162H110.545L110.587 12.2673L110.63 10.8562L106.9 10.8175L103.171 10.7788L103.128 9.58271L103.085 8.38664H106.115H109.144V6.9399V5.49302L106.157 5.45388L103.171 5.41459V4.32725V3.23991L106.9 3.2012L110.63 3.16249L110.587 1.75142L110.545 0.340346L105.195 0.302217C100.993 0.272351 99.8288 0.303522 99.7727 0.447195ZM126.763 0.44908C126.724 0.548825 126.71 3.56611 126.731 7.15433L126.77 13.6783H128.392H130.014L130.088 11.1621L130.162 8.64572L132.519 11.1983L134.875 13.7508H136.747C137.777 13.7508 138.727 13.7101 138.859 13.6602C139.049 13.5888 138.873 13.3352 138.03 12.4642C137.442 11.8561 136.491 10.8694 135.918 10.2714C135.345 9.67332 134.42 8.71313 133.864 8.13771L132.852 7.09126L134.457 5.38313C135.339 4.44352 136.432 3.28341 136.885 2.80498C138.768 0.814135 139.078 0.453719 138.986 0.363108C138.932 0.31077 138.045 0.267857 137.013 0.267857H135.137L134.578 0.884015C134.27 1.22297 133.508 2.05471 132.886 2.73249C132.264 3.41026 131.429 4.33464 131.032 4.78654C130.635 5.23858 130.26 5.61364 130.199 5.62016C130.138 5.62669 130.088 4.42511 130.088 2.94995V0.267857H128.461C127.296 0.267857 126.814 0.319324 126.763 0.44908ZM77.4716 3.25064C78.8424 3.70979 79.7927 5.24844 79.7927 7.00935C79.7927 8.63252 79.0703 9.94661 77.8155 10.6057C77.3161 10.8681 76.9689 10.923 75.8103 10.9233C74.5443 10.9238 74.342 10.8851 73.7136 10.5219C72.79 9.98807 72.3296 9.36191 72.0377 8.24166C71.4607 6.02799 72.3954 3.86578 74.2081 3.22092C74.9229 2.96677 76.6713 2.98258 77.4716 3.25064ZM34.2156 5.76123C34.7031 7.13606 35.1019 8.28936 35.1019 8.32386C35.1019 8.35837 34.2723 8.38664 33.2582 8.38664C32.2442 8.38664 31.4146 8.33996 31.4146 8.28298C31.4146 8.11379 33.2413 3.17482 33.2871 3.2199C33.3103 3.24267 33.728 4.38625 34.2156 5.76123ZM93.1825 3.5506C93.9766 4.12094 94.1734 4.77886 94.1734 6.86437C94.1734 8.58541 94.1414 8.81186 93.8046 9.47151C93.2285 10.6002 92.7909 10.7763 90.5598 10.7776L88.7161 10.7788L88.6766 7.15694C88.6549 5.16493 88.6726 3.4439 88.7161 3.33241C88.7804 3.168 89.1717 3.14234 90.7884 3.19627C92.4763 3.25252 92.843 3.30675 93.1825 3.5506Z" fill="black"/>
</svg>
