<svg width="135" height="15" viewBox="0 0 135 15" fill="none" xmlns="http://www.w3.org/2000/svg">
<path fill-rule="evenodd" clip-rule="evenodd" d="M8.126 0C6.8875 0 5.754 0.2021 4.7569 0.5982C3.7599 0.9943 2.8973 1.5477 2.1933 2.2436C1.4911 2.9395 0.9437 3.7698 0.5679 4.7127C0.1918 5.6538 0 6.6829 0 7.7732C0 8.8105 0.1805 9.782 0.5343 10.6599C0.8882 11.5399 1.4006 12.3108 2.0567 12.9502C2.711 13.59 3.5145 14.097 4.4434 14.4581C5.3704 14.8176 6.4154 15 7.5508 15C9.134 15 10.5641 14.7348 11.8026 14.2126L11.8837 14.1778V12.5884L11.6736 12.6932C10.542 13.2566 9.2114 13.5417 7.7166 13.5417C6.7473 13.5417 5.8846 13.386 5.1567 13.0779C4.4269 12.7678 3.8076 12.3456 3.3192 11.8186C2.8289 11.2896 2.4512 10.6637 2.2004 9.9576C1.948 9.2466 1.8209 8.4795 1.8209 7.6757C1.8209 6.7791 1.9628 5.9408 2.2446 5.1852C2.5249 4.4328 2.9357 3.7717 3.4666 3.2199C3.9955 2.6697 4.6572 2.2356 5.4295 1.9258C6.2036 1.6158 7.1028 1.4601 8.1037 1.4601C9.3661 1.4601 10.5678 1.7136 11.6792 2.2124L11.8837 2.3035V0.5973L11.7936 0.5653C10.7209 0.1905 9.4861 0 8.126 0Z" fill="#161616"/>
<path fill-rule="evenodd" clip-rule="evenodd" d="M23.0583 8.7379C22.7246 8.4031 22.3008 8.0782 21.7995 7.7716C21.3037 7.4701 20.7158 7.1552 20.0504 6.8355C19.422 6.5338 18.8819 6.2619 18.4469 6.0286C18.0214 5.8 17.6729 5.5662 17.4132 5.336C17.1587 5.1105 16.9726 4.8703 16.8584 4.6183C16.7442 4.3666 16.6868 4.0599 16.6868 3.7071C16.6868 3.3392 16.7718 3.0143 16.9395 2.7393C17.1089 2.4625 17.345 2.2273 17.6379 2.0418C17.9366 1.8511 18.2903 1.7053 18.6885 1.6076C19.092 1.5082 19.527 1.4585 19.9841 1.4585C21.2134 1.4585 22.299 1.697 23.2093 2.1676L23.4214 2.277V0.510401L23.3328 0.477301C22.4795 0.160701 21.4087 0 20.1499 0C19.4312 0 18.7456 0.0893994 18.1116 0.264999C17.4758 0.440799 16.9118 0.6959 16.4363 1.0257C15.9589 1.357 15.5738 1.7631 15.2917 2.2354C15.0099 2.7093 14.8659 3.2512 14.8659 3.846C14.8659 4.3167 14.9417 4.7426 15.0909 5.1119C15.2401 5.4832 15.476 5.8346 15.7931 6.1526C16.1046 6.4675 16.5118 6.7787 17.0021 7.079C17.4869 7.3738 18.0766 7.692 18.7548 8.0237C19.3612 8.3271 19.8957 8.602 20.3436 8.8422C20.7821 9.0795 21.1489 9.3195 21.4363 9.5564C21.7147 9.7901 21.9229 10.0421 22.0556 10.3053C22.1866 10.5705 22.2529 10.8856 22.2529 11.2434C22.2529 11.9903 21.9782 12.5472 21.4124 12.9415C20.8429 13.339 19.9639 13.5411 18.8009 13.5411C18.5004 13.5411 18.1798 13.5167 17.8498 13.468C17.52 13.4202 17.1863 13.3467 16.8584 13.2543C16.5321 13.1597 16.2078 13.0427 15.8944 12.9034C15.583 12.7655 15.2954 12.6063 15.0375 12.434L14.8107 12.2797V14.156L14.8772 14.195C15.0854 14.3115 15.3581 14.4219 15.6881 14.5207C16.0105 14.6176 16.357 14.7037 16.7147 14.7733C17.0703 14.8428 17.4279 14.8983 17.7779 14.9331C18.1282 14.972 18.4359 14.9892 18.6903 14.9892C19.4662 14.9892 20.1886 14.907 20.8392 14.7451C21.4953 14.5832 22.0685 14.3374 22.5459 14.0192C23.0269 13.6956 23.4048 13.2852 23.672 12.7947C23.9391 12.3064 24.0738 11.7323 24.0738 11.0929C24.0738 10.6287 23.9891 10.1999 23.8194 9.8187C23.6517 9.4385 23.3956 9.0758 23.0583 8.7379Z" fill="#161616"/>
<path fill-rule="evenodd" clip-rule="evenodd" d="M35.908 9.8199C35.7403 9.4385 35.484 9.0758 35.1469 8.7377C34.8132 8.4029 34.3895 8.0776 33.8881 7.7713C33.3923 7.4701 32.8044 7.1549 32.1391 6.8353C31.5106 6.5336 30.9706 6.2617 30.5356 6.0284C30.1097 5.7998 29.7615 5.566 29.5016 5.3358C29.2473 5.1103 29.0612 4.8701 28.947 4.6181C28.8326 4.3663 28.7754 4.0597 28.7754 3.7069C28.7754 3.3389 28.8602 3.0143 29.0281 2.7391C29.1976 2.4623 29.4334 2.2271 29.7265 2.0415C30.025 1.8509 30.379 1.7051 30.7771 1.6074C31.1806 1.508 31.6156 1.4583 32.0727 1.4583C33.302 1.4583 34.3874 1.6968 35.298 2.1674L35.5098 2.2768V0.510401L35.4214 0.477301C34.5682 0.160701 33.4973 0 32.2385 0C31.5198 0 30.8342 0.0893994 30.2003 0.264999C29.5644 0.440799 29.0004 0.6959 28.5249 1.0257C28.0475 1.357 27.6622 1.7631 27.3803 2.2354C27.0982 2.7093 26.9545 3.2512 26.9545 3.846C26.9545 4.3167 27.0301 4.7426 27.1795 5.1119C27.3288 5.4832 27.5646 5.8346 27.8817 6.1526C28.193 6.4675 28.6004 6.7787 29.0907 7.079C29.5755 7.3742 30.1652 7.692 30.8435 8.0237C31.4498 8.3271 31.9843 8.602 32.432 8.8422C32.8707 9.0795 33.2375 9.3195 33.525 9.5568C33.8034 9.7901 34.0116 10.0421 34.1442 10.3053C34.275 10.5705 34.3413 10.8856 34.3413 11.2434C34.3413 11.9903 34.0668 12.5472 33.501 12.9415C32.9315 13.339 32.0525 13.5411 30.8895 13.5411C30.589 13.5411 30.2684 13.5167 29.9384 13.468C29.6086 13.4202 29.2749 13.3467 28.947 13.2543C28.6207 13.1597 28.2962 13.0427 27.983 12.9034C27.6714 12.7655 27.384 12.6063 27.1261 12.434L26.8993 12.2801V14.156L26.9656 14.195C27.174 14.3115 27.4467 14.4219 27.7767 14.5207C28.0991 14.6176 28.4457 14.7037 28.8031 14.7733C29.1589 14.8428 29.5163 14.8983 29.8666 14.9331C30.2168 14.972 30.5245 14.9892 30.779 14.9892C31.5548 14.9892 32.2772 14.907 32.9278 14.7451C33.5839 14.5832 34.1571 14.3374 34.6345 14.0192C35.1156 13.6956 35.4932 13.2852 35.7606 12.7947C36.0277 12.3064 36.1622 11.7327 36.1622 11.0929C36.1622 10.6299 36.0775 10.2009 35.908 9.8199Z" fill="#161616"/>
<path d="M69.173 0.2435H67.4184V14.7561H69.173V0.2435Z" fill="#161616"/>
<path fill-rule="evenodd" clip-rule="evenodd" d="M103.618 12.1191C103.603 12.1008 93.3937 0.2437 93.3937 0.2437H91.5537V14.7563H93.3077C93.3077 14.7563 93.3027 2.9979 93.2927 2.784C93.2977 2.7907 103.632 14.7563 103.632 14.7563H105.374V0.2435H103.609C103.609 0.2435 103.61 12.0263 103.618 12.1191Z" fill="#161616"/>
<path fill-rule="evenodd" clip-rule="evenodd" d="M85.5227 12.1191C85.5097 12.1008 75.3007 0.2437 75.3007 0.2437H73.4607V14.7563H75.2147C75.2147 14.7563 75.2097 2.9979 75.1987 2.784C75.2037 2.7907 85.5387 14.7563 85.5387 14.7563H87.2807V0.2435H85.5147C85.5147 0.2435 85.5157 12.0263 85.5227 12.1191Z" fill="#161616"/>
<path fill-rule="evenodd" clip-rule="evenodd" d="M111.406 8.1349H118.157V6.6862H111.406V1.7117H119.543V0.2437H109.651V14.7561H119.896V13.2978H111.406V8.1349Z" fill="#161616"/>
<path d="M132.221 10.1529C132.044 9.8551 131.871 9.5847 131.708 9.351C131.544 9.1159 131.374 8.9037 131.204 8.7213C131.033 8.5358 130.853 8.3768 130.67 8.2457C130.569 8.1728 130.46 8.1082 130.346 8.0505C130.794 7.9376 131.205 7.7865 131.575 7.5974C132.034 7.362 132.428 7.0721 132.751 6.734C133.075 6.3959 133.328 6.0033 133.501 5.5658C133.676 5.13 133.765 4.6461 133.765 4.1307C133.765 3.4911 133.626 2.9195 133.357 2.4339C133.086 1.9484 132.723 1.5392 132.273 1.2177C131.827 0.897799 131.311 0.652599 130.74 0.490299C130.173 0.327799 129.575 0.2449 128.969 0.2449H123.363V14.7573H125.117V8.5521H127.618C127.935 8.5521 128.224 8.5853 128.48 8.6515C128.731 8.7163 128.971 8.8255 129.19 8.9764C129.415 9.1309 129.636 9.3427 129.847 9.6019C130.063 9.8688 130.289 10.2036 130.523 10.6011L132.911 14.6865L132.953 14.7538H135L132.221 10.1529ZM125.118 1.7119H128.625C129.705 1.7119 130.538 1.9405 131.102 2.3896C131.661 2.837 131.944 3.4617 131.944 4.2489C131.944 4.6862 131.862 5.084 131.696 5.4321C131.532 5.7782 131.297 6.0783 131 6.3218C130.703 6.569 130.338 6.7595 129.916 6.8934C129.49 7.0264 129.015 7.0943 128.503 7.0943H125.117L125.118 1.7119Z" fill="#161616"/>
<path fill-rule="evenodd" clip-rule="evenodd" d="M38.703 0.2437L49.5483 14.7536L50.49 13.5113L40.5847 0.2437H38.703Z" fill="#161616"/>
<path fill-rule="evenodd" clip-rule="evenodd" d="M62.682 0.2437L53.7274 12.2596L47.253 3.4969H45.3483L53.7488 14.7553L64.5674 0.2437H62.682Z" fill="#161616"/>
<path fill-rule="evenodd" clip-rule="evenodd" d="M60.3521 0.2437H58.4695L52.7862 7.8916L53.7205 9.1454L60.3521 0.2437Z" fill="#161616"/>
</svg>
