<svg width="123" height="39" viewBox="0 0 123 39" fill="none" xmlns="http://www.w3.org/2000/svg">
<path fill-rule="evenodd" clip-rule="evenodd" d="M104.353 21.8283C103.899 20.9501 102.743 19.9898 101.341 19.6986C97.2588 18.8511 94.5675 21.3008 93.703 25.4644C92.8343 29.6484 94.3404 32.906 98.4224 33.7536C100.129 34.1079 101.538 33.447 102.067 32.8365L101.776 34.2381L105.126 34.9337L109.095 15.8215L105.744 15.1258L104.353 21.8283ZM103.493 27.4972C102.932 30.1985 101.251 31.3537 99.5046 30.991C97.7579 30.6283 96.6767 28.8996 97.2376 26.1983C97.7985 23.497 99.4785 22.3416 101.225 22.7043C102.952 23.063 104.054 24.7959 103.493 27.4972ZM2.66326 3.19292C3.54945 1.0676 5.84434 -0.0871655 8.62689 0.490593C11.8562 1.16112 14.0557 3.01612 13.149 7.38288L11.4664 15.4867L8.70419 14.9132L8.72164 13.0948C7.52239 14.0746 6.10291 14.5849 4.13282 14.1758C1.81741 13.6951 0.28882 11.8735 0.849704 9.17219C1.41059 6.47091 4.16996 5.2218 7.56181 5.92608L9.81623 6.39417L9.94274 5.78487C10.259 4.26166 9.2229 3.538 7.96365 3.27654C7.00902 3.07832 5.99121 3.18482 5.28288 4.35128L2.66326 3.19292ZM5.51534 11.4969C7.03855 11.8131 8.85819 11.1105 9.22088 9.36375L9.27569 9.09978L7.06181 8.6401C5.6282 8.30005 4.63676 8.68738 4.39217 9.86535C4.27758 10.5195 4.60133 11.3071 5.51534 11.4969ZM34.8639 6.34045L27.6962 19.0257L24.7309 18.41L24.2009 9.12633L20.0105 17.4722L17.0451 16.8565L15.5199 2.36631L18.9321 3.07482L19.4337 12.9033L23.6848 4.06163L26.7719 4.70264L27.1516 14.5059L31.5246 5.68948L34.8639 6.34045ZM45.1212 18.237L49.462 9.37153L52.8538 10.0758L45.6776 22.8016L42.7123 22.1859L42.2026 12.9065L38.0206 21.2118L35.0553 20.5961L34.4683 14.648L36.2862 11.4026L36.6446 10.7991L37.4236 16.6387L41.6221 7.74369L44.7702 8.39736L45.1212 18.237ZM67.4922 13.1153L63.1108 21.9723L62.7598 12.1326L59.6117 11.479L55.4132 20.374L54.6342 14.5344L54.2758 15.1379L52.4579 18.3833L53.0449 24.3313L56.0101 24.947L60.1922 16.6418L60.7019 25.9212L63.6672 26.5369L70.8437 13.8112L67.4922 13.1153ZM77.9049 14.8752C75.1222 14.2974 72.8275 15.4522 71.9409 17.5775L74.5817 18.7402C75.2897 17.5737 76.3076 17.4672 77.2622 17.6654C78.5213 17.9269 79.5578 18.6506 79.2416 20.1738L79.1151 20.7831L76.8602 20.3149C73.4685 19.6107 70.7089 20.8597 70.148 23.561C69.5872 26.2623 71.1158 28.0839 73.4314 28.5647C75.4014 28.9738 76.8207 28.4635 78.02 27.4836L78.0029 29.3021L80.7444 29.8714L82.4271 21.7675C83.3338 17.4008 81.134 15.5457 77.9049 14.8752ZM78.4993 23.7485C78.1367 25.4952 76.3168 26.1978 74.7933 25.8815C73.8798 25.6918 73.5561 24.9043 73.6621 24.2907C73.9151 23.0721 74.8981 22.7254 76.3404 23.0248L78.5541 23.4845L78.4993 23.7485ZM81.9761 30.3389L84.8058 16.7106L88.1574 17.4065L87.6977 19.6203C88.9855 18.214 90.6819 17.6976 92.2054 18.014C92.8144 18.1404 93.2852 18.3228 93.7955 18.6195L92.5455 21.5803C92.2136 21.2359 91.7924 21.0214 91.2235 20.9033C89.2741 20.4985 87.2343 21.7486 86.3192 26.156L85.3155 30.9899L81.9761 30.3389ZM118.355 25.5826L115.965 26.9932C115.528 26.0338 114.686 25.4988 113.955 25.3469C113.305 25.212 112.616 25.4714 112.459 26.2229C112.333 26.8322 112.732 27.36 113.49 27.7928C113.718 27.9354 113.967 28.0804 114.226 28.2309L114.227 28.2312C115.928 29.2194 118.063 30.4597 117.536 32.9973C117.022 35.4752 114.727 37.1384 111.762 36.5228C108.938 35.9365 107.427 33.5253 107.118 31.7451L110.078 30.8554C110.296 32.2565 111.011 33.4009 112.352 33.6794C113.387 33.8943 114.159 33.546 114.366 32.5509C114.546 31.6828 113.603 31.1122 112.479 30.4319C112.13 30.2206 111.764 29.9991 111.409 29.7546C110.053 28.8375 108.991 27.6213 109.425 25.5293C109.86 23.4373 111.954 21.9231 114.595 22.4714C116.377 22.8628 117.792 24.1099 118.355 25.5826ZM122.847 36.4733C123.116 35.1734 122.36 34.0206 121.061 33.7508C119.781 33.4851 118.587 34.2329 118.338 35.5371C118.068 36.837 118.824 37.9897 120.124 38.2597C121.424 38.5295 122.577 37.7732 122.847 36.4733Z" fill="white"/>
</svg>
