<svg width="149" height="39" viewBox="0 0 149 39" fill="none" xmlns="http://www.w3.org/2000/svg">
<path d="M6.91684 17.3687L0.17647 38.3135L4.78325 37.5558L11.5273 16.6104L6.91684 17.3687Z" fill="black"/>
<path d="M65.2638 15.7124L64.7229 17.3872L64.6757 17.395C64.2457 16.8325 63.6549 16.412 62.9802 16.1883C62.3047 16.0053 61.5962 15.9782 60.908 16.1094C60.16 16.2165 59.4482 16.4991 58.8316 16.9337C58.2694 17.3352 57.8038 17.8559 57.4689 18.4577C57.126 19.0762 56.9032 19.7529 56.8124 20.4524C56.7076 21.191 56.7175 21.9409 56.8412 22.676C56.9605 23.4326 57.1766 24.1708 57.4836 24.873C57.7641 25.5174 58.1716 26.0994 58.6819 26.5849C59.1812 27.052 59.7853 27.3944 60.4447 27.5837C61.2054 27.7895 62.0045 27.8194 62.78 27.6713C63.4777 27.56 64.1425 27.2972 64.7268 26.9017C65.3109 26.519 65.7522 25.9572 65.9836 25.3023L66.0275 25.295L66.2785 26.821C66.5759 28.6291 65.8928 29.8037 64.1948 30.0829C62.4963 30.3623 61.4737 29.7877 60.8949 29.2738L60.11 31.739C60.11 31.739 61.6149 32.6948 64.0966 32.2866C68.2114 31.6098 69.8166 29.3069 69.3027 26.1825L67.5184 15.3341L65.2638 15.7124ZM65.4272 22.7161C65.3804 23.101 65.2641 23.4749 65.0848 23.8197C64.9067 24.1584 64.6548 24.4536 64.3472 24.6837C64.0067 24.929 63.6116 25.0883 63.1956 25.148C62.7625 25.2359 62.3127 25.1977 61.901 25.0378C61.5412 24.8883 61.221 24.6573 60.9669 24.3633C60.7017 24.0578 60.4957 23.7065 60.3586 23.3268C60.2069 22.9313 60.0956 22.5216 60.0263 22.1039C59.9563 21.6849 59.9375 21.259 59.971 20.8354C59.9989 20.4435 60.1012 20.06 60.272 19.7052C60.4349 19.3714 60.6723 19.0784 60.9657 18.8483C61.2922 18.6014 61.6778 18.4433 62.084 18.3895C62.5352 18.2972 63.0028 18.3226 63.4405 18.4635C63.8064 18.5951 64.1344 18.8141 64.3948 19.1013C64.67 19.4125 64.8863 19.7708 65.0328 20.1588C65.1987 20.5885 65.3187 21.0343 65.3901 21.4891C65.4618 21.894 65.4739 22.3073 65.4272 22.7161Z" fill="black"/>
<path d="M21.8002 18.3302L22.7911 24.3546L22.8604 24.3432C23.1179 23.6536 23.5757 23.0548 24.1757 22.6228C24.6995 22.2361 25.3061 21.9749 25.948 21.8596C26.6666 21.7217 27.4053 21.7265 28.1213 21.8735C28.6641 21.9934 29.1657 22.2513 29.577 22.622C29.9797 23.0137 30.2904 23.4888 30.4872 24.0136C30.7269 24.6364 30.8997 25.2826 31.0027 25.9418L32.1744 33.0655L28.9744 33.5918L27.8961 27.0358C27.8244 26.2876 27.5464 25.5739 27.0927 24.973C26.7159 24.5485 26.1391 24.387 25.3737 24.5129C24.499 24.6568 23.9113 25.0209 23.6022 25.5991C23.293 26.1773 23.2396 27.0589 23.4317 28.2269L24.4345 34.3236L21.2272 34.8512L18.5966 18.8571L21.8002 18.3302Z" fill="black"/>
<path d="M32.1068 24.2714C32.2508 23.507 32.5577 22.7816 33.0071 22.1438C33.4583 21.519 34.0345 20.9931 34.6995 20.5991C36.2122 19.7548 37.9746 19.4649 39.678 19.7802C40.4437 19.9314 41.1666 20.2464 41.7964 20.7034C42.4262 21.1604 42.9478 21.7484 43.3249 22.4264C43.7546 23.1887 44.0413 24.0224 44.1713 24.8869C44.3229 25.7406 44.3171 26.6149 44.154 27.4672C44.0043 28.2259 43.6969 28.9457 43.2513 29.5804C42.7954 30.1995 42.2113 30.7148 41.5384 31.0914C40.0194 31.9216 38.2611 32.2107 36.5562 31.9109C35.7999 31.7587 35.0853 31.4483 34.46 31.0003C33.8325 30.544 33.3103 29.9602 32.9281 29.2876C32.4989 28.5331 32.2132 27.7064 32.0852 26.8488C31.9353 25.9958 31.9426 25.1226 32.1068 24.2714ZM35.6594 27.6648C35.8093 28.0725 36.0324 28.4498 36.318 28.7783C36.5887 29.0907 36.9344 29.3302 37.3234 29.4746C37.7756 29.6294 38.2616 29.661 38.7309 29.5662C39.2078 29.5038 39.6601 29.318 40.0423 29.0274C40.3707 28.7677 40.6269 28.4289 40.7863 28.0434C40.9502 27.6403 41.0406 27.2117 41.0535 26.7776C41.0715 26.3175 41.0421 25.8569 40.9659 25.403C40.8914 24.9439 40.7709 24.4934 40.6062 24.0583C40.4567 23.6503 40.2335 23.273 39.9477 22.9447C39.6685 22.6298 39.3165 22.387 38.9217 22.237C38.4672 22.0798 37.9783 22.046 37.5057 22.1393C37.0602 22.1886 36.6362 22.3565 36.2784 22.6252C35.9207 22.8939 35.6425 23.2534 35.4734 23.6658C35.3061 24.0678 35.2155 24.4971 35.2062 24.9316C35.1883 25.3966 35.2172 25.8621 35.2925 26.3213C35.3667 26.7806 35.4885 27.231 35.6558 27.6654L35.6594 27.6648Z" fill="black"/>
<path d="M53.9092 29.4761L53.6469 27.8814L53.5813 27.8921C53.3176 28.5827 52.8489 29.1778 52.2374 29.5988C51.6639 29.9916 51.0108 30.255 50.3243 30.3702C49.6097 30.5111 48.875 30.5159 48.1593 30.3846C47.6153 30.2735 47.1125 30.0172 46.7048 29.6434C46.299 29.2537 45.9867 28.7783 45.7911 28.2524C45.5513 27.6296 45.3785 26.9833 45.2755 26.3242L44.1027 19.1932L47.3099 18.6657L48.3858 25.2073C48.4578 25.9567 48.7359 26.6715 49.1899 27.2737C49.566 27.6946 50.1402 27.8478 50.9124 27.7332C51.7847 27.5897 52.374 27.2278 52.6803 26.6476C52.9858 26.07 53.0429 25.1878 52.8508 24.0198L51.8475 17.9194L55.051 17.3925L56.9542 28.9641L53.9092 29.4761Z" fill="black"/>
<path d="M71.1969 10.2057L72.1878 16.2302L72.2533 16.2194C72.5133 15.5297 72.9723 14.9309 73.5727 14.4983C74.0964 14.1117 74.7033 13.8504 75.3451 13.7351C76.0635 13.5972 76.802 13.602 77.5183 13.7491C78.062 13.8629 78.567 14.1152 78.9824 14.4813C79.385 14.8736 79.6968 15.3482 79.8964 15.8722C80.1346 16.4954 80.3065 17.1418 80.4081 17.8011L81.5798 24.9248L78.3764 25.4517L77.3005 18.9101C77.2271 18.1623 76.949 17.449 76.4966 16.8474C76.1164 16.4147 75.5422 16.2615 74.774 16.3879C73.8998 16.5317 73.312 16.8958 73.0063 17.4734C72.7011 18.051 72.6438 18.9332 72.8359 20.1012L73.8386 26.198L70.6314 26.7255L68.0008 10.7314L71.1969 10.2057Z" fill="black"/>
<path d="M104.672 12.6037C104.814 11.8434 105.119 11.1218 105.566 10.4882C106.014 9.85443 106.593 9.32348 107.265 8.9312C108.778 8.087 110.54 7.79714 112.244 8.11237C113.009 8.26522 113.731 8.58097 114.36 9.03776C114.99 9.49454 115.512 10.0817 115.89 10.7586C116.32 11.521 116.607 12.3546 116.737 13.2191C116.889 14.0728 116.882 14.9471 116.719 15.7995C116.571 16.5591 116.262 17.2794 115.813 17.9132C115.36 18.5321 114.779 19.0471 114.107 19.4231C112.588 20.2532 110.83 20.5423 109.126 20.2425C108.369 20.0913 107.654 19.7808 107.029 19.332C106.401 18.8751 105.878 18.2917 105.494 17.6198C105.067 16.8642 104.783 16.0376 104.655 15.1804C104.505 14.3277 104.511 13.455 104.672 12.6037ZM108.225 15.997C108.376 16.4041 108.599 16.7812 108.884 17.1106C109.157 17.4219 109.503 17.661 109.892 17.8063C110.345 17.9609 110.831 17.9926 111.3 17.8978C111.777 17.8355 112.229 17.6497 112.612 17.359C112.939 17.0984 113.195 16.7599 113.355 16.3751C113.519 15.972 113.61 15.5433 113.623 15.1092C113.641 14.6491 113.611 14.1885 113.535 13.7346C113.461 13.2755 113.34 12.825 113.175 12.3899C113.026 11.9819 112.803 11.6046 112.517 11.2763C112.237 10.9624 111.885 10.7197 111.491 10.5686C111.036 10.4114 110.547 10.3777 110.075 10.471C109.599 10.5321 109.149 10.7203 108.772 11.0157C108.455 11.2826 108.204 11.6188 108.039 11.998C107.873 12.4005 107.783 12.8295 107.772 13.2637C107.757 13.7288 107.787 14.1939 107.862 14.6528C107.936 15.112 108.057 15.5623 108.222 15.9975L108.225 15.997Z" fill="black"/>
<path d="M128.29 0.815436L129.701 9.39651L133.054 4.56296L136.848 3.93896L133.145 8.91929L139.252 15.4392L135.367 16.0783L131.312 11.4305L130.265 12.821L130.919 16.7987L127.712 17.3262L125.083 1.34294L128.29 0.815436Z" fill="black"/>
<path d="M141.145 12.1714C141.321 12.3879 141.543 12.5632 141.795 12.6848C142.059 12.8111 142.343 12.8902 142.635 12.9181C142.946 12.9449 143.259 12.932 143.568 12.8797C143.807 12.8397 144.041 12.7738 144.265 12.6833C144.495 12.5969 144.709 12.4765 144.903 12.3259C145.086 12.1835 145.234 12.0016 145.335 11.7942C145.447 11.5578 145.477 11.2919 145.421 11.0374C145.342 10.56 144.963 10.2548 144.284 10.1102C143.361 9.94968 142.427 9.85503 141.49 9.82696C141.006 9.79888 140.53 9.75086 140.063 9.69021C139.619 9.63568 139.185 9.51825 138.774 9.34135C138.396 9.17208 138.061 8.91979 137.796 8.6035C137.51 8.24756 137.327 7.82047 137.267 7.36836C137.134 6.73183 137.182 6.07073 137.406 5.45879C137.613 4.94247 137.949 4.48699 138.382 4.13579C138.845 3.76857 139.368 3.48281 139.928 3.29104C140.519 3.07856 141.128 2.92117 141.749 2.82079C142.366 2.71703 142.992 2.67497 143.618 2.69523C144.199 2.70983 144.772 2.82679 145.311 3.04082C145.826 3.24812 146.287 3.56843 146.659 3.97775C147.078 4.46305 147.369 5.04432 147.506 5.66938L144.46 6.17051C144.424 5.91903 144.322 5.68155 144.163 5.48301C144.004 5.28446 143.794 5.13202 143.555 5.04173C143.054 4.89177 142.525 4.86416 142.011 4.96146C141.815 4.9944 141.621 5.03754 141.429 5.09051C141.234 5.1437 141.048 5.2256 140.878 5.33344C140.717 5.43229 140.584 5.56907 140.49 5.73151C140.39 5.91385 140.36 6.126 140.405 6.32852C140.422 6.46119 140.469 6.58812 140.543 6.69956C140.618 6.81101 140.717 6.90399 140.833 6.97134C141.108 7.12902 141.413 7.23156 141.728 7.27337C142.13 7.33407 142.535 7.37161 142.941 7.38589C143.394 7.40554 143.854 7.43006 144.323 7.45939C144.801 7.48492 145.277 7.53693 145.749 7.61485C146.194 7.68339 146.626 7.81767 147.031 8.01312C147.414 8.19794 147.752 8.46442 148.02 8.79373C148.312 9.17346 148.499 9.62322 148.56 10.0976C148.694 10.7191 148.657 11.365 148.454 11.9685C148.251 12.572 147.889 13.111 147.406 13.5297C146.939 13.9394 146.399 14.2589 145.813 14.4714C145.191 14.7033 144.547 14.8738 143.89 14.9808C143.224 15.0922 142.547 15.135 141.872 15.1085C141.239 15.0876 140.616 14.9536 140.032 14.7128C139.43 14.4702 138.902 14.0762 138.499 13.5695C138.097 13.0627 137.834 12.4605 137.738 11.8219L140.785 11.3208C140.826 11.6316 140.95 11.9254 141.145 12.1714Z" fill="black"/>
<path d="M87.9582 21.4355C87.5806 21.5455 87.1758 21.5143 86.8206 21.3478C86.5482 21.0674 86.3887 20.6972 86.373 20.3072L85.4315 14.5829L87.2205 14.2887L87.9637 11.9789L85.0845 12.4525L84.5135 8.98099L81.3063 9.50849L81.8773 12.98L80.2737 13.2437L79.5299 15.5499L82.2231 15.1069L83.3472 21.9414C83.4068 22.4319 83.5875 22.8999 83.8745 23.3031C84.1147 23.6196 84.4402 23.8622 84.8133 24.0029C85.2099 24.1439 85.6297 24.2108 86.051 24.2004C86.5293 24.1934 87.0067 24.1496 87.4781 24.0697C87.7951 24.0176 88.1159 23.9648 88.4443 23.8885C88.7447 23.826 89.0417 23.7462 89.3331 23.6495L88.9274 21.1833C88.7763 21.2418 88.6219 21.2907 88.4647 21.3299C88.3106 21.3702 88.1402 21.4056 87.9582 21.4355Z" fill="black"/>
<path d="M18.8348 32.8045C18.4572 32.914 18.0527 32.8828 17.6974 32.7167C17.4246 32.4363 17.2652 32.0661 17.2493 31.6762L16.3078 25.9519L17.9588 25.6804L18.7019 23.3706L15.9647 23.8208L15.3938 20.3493L12.1902 20.8762L12.7611 24.3477L11.1539 24.6121L10.4102 26.9182L13.1072 26.4746L14.2313 33.3091C14.2894 33.7995 14.4693 34.2676 14.7548 34.6714C14.9957 34.9871 15.3208 35.2294 15.6934 35.3713C16.0938 35.5124 16.5171 35.5787 16.9421 35.567C17.4204 35.5599 17.8976 35.5162 18.3692 35.4363C18.6864 35.3841 19.0108 35.3308 19.3352 35.2551C19.6346 35.1927 19.9303 35.1131 20.2205 35.0166L19.8149 32.5505C19.664 32.6089 19.5095 32.6579 19.3524 32.6971C19.1871 32.7391 19.0134 32.7751 18.8348 32.8045Z" fill="black"/>
<path d="M123.258 5.85479C120.564 6.29785 119.938 8.93006 119.938 8.93006L119.894 8.93718L119.54 6.7856L116.493 7.28681L118.396 18.8584L121.6 18.3315L120.804 13.4931C120.341 10.6725 120.688 9.32298 123.111 8.92439C123.546 8.84635 123.994 8.87735 124.414 9.01467L125.347 6.11277C124.692 5.82458 123.965 5.73492 123.258 5.85479Z" fill="black"/>
<path d="M101.014 9.8365L100.155 18.0258L100.112 18.0329L96.8367 10.5235L93.7205 11.036L93.0713 19.2169L93.0274 19.2241L89.5913 11.7152L88.171 16.1195L91.8126 23.2419L95.1292 22.6964L95.8371 14.5949L95.881 14.5877L99.2368 22.0208L102.535 21.4783L104.308 9.29466L101.014 9.8365Z" fill="black"/>
</svg>
