<svg width="168" height="68" viewBox="0 0 168 68" fill="none" xmlns="http://www.w3.org/2000/svg">
<path fill-rule="evenodd" clip-rule="evenodd" d="M14.2599 19.6839L8.42439 8.84201L19.3189 3.10532L10.954 0.552674L0.0593091 6.28933L2.96282 11.7569L8.82678 22.5057L14.2599 19.6839Z" fill="#161616"/>
<path fill-rule="evenodd" clip-rule="evenodd" d="M21.4589 17.4011L18.5554 11.9336L15.6234 6.55908L10.2833 9.40926L16.0259 20.2228L5.13121 25.9595L13.4963 28.5121L18.9293 25.6904L24.3908 22.7754L21.4589 17.4011Z" fill="#161616"/>
<path fill-rule="evenodd" clip-rule="evenodd" d="M37.134 17.588C35.928 17.22 34.7933 17.2831 33.794 17.8992C32.7947 18.5154 32.0808 19.5256 31.6237 21.0236C31.1666 22.5215 31.1947 23.7583 31.5871 24.799C32.072 25.8681 32.8854 26.5258 34.1842 26.9221C35.0191 27.1769 35.9111 27.2444 37.0173 27.2748L36.6459 28.4919C35.7253 28.5181 34.7404 28.4223 33.6272 28.0826C31.9574 27.573 30.8015 26.7085 30.1881 25.3956C29.5747 24.0827 29.568 22.4431 30.1394 20.5707C30.5108 19.3535 31.0106 18.3803 31.7316 17.6792C32.4525 16.9782 33.3305 16.4274 34.2155 16.1856C35.1005 15.944 36.2066 15.9746 37.4126 16.3426C38.6186 16.7106 39.5819 17.2092 40.3667 17.9605L39.4672 18.9141C38.8108 18.4067 38.0616 17.8711 37.134 17.588Z" fill="#161616"/>
<path fill-rule="evenodd" clip-rule="evenodd" d="M46.4728 28.5229C46.1586 29.5527 45.559 30.1885 44.6454 30.5237C43.7318 30.859 42.7184 30.8568 41.4197 30.4605C40.0282 30.0359 39.0649 29.5372 38.437 28.9363L38.837 27.6255C39.2437 27.9543 39.7431 28.3114 40.1784 28.5466C40.6137 28.7817 41.2345 29.0736 41.7911 29.2434C42.7187 29.5265 43.4253 29.5374 43.8821 29.3697C44.4602 29.1368 44.7886 28.7253 44.9601 28.1635C45.0743 27.7891 45.0958 27.3863 44.9674 27.1424C44.8676 26.8049 44.6464 26.5327 44.3611 26.1386C44.0471 25.8381 43.5763 25.3874 42.9198 24.88C42.0136 24.1942 41.3216 23.4712 41.122 22.7963C40.8295 22.093 40.8439 21.381 41.1011 20.5384C41.3582 19.6958 41.9579 19.0601 42.7786 18.6965C43.5995 18.3329 44.5843 18.4288 45.6047 18.7402C46.7179 19.0799 47.6813 19.5784 48.5588 20.358L47.8449 21.3682C47.0315 20.7107 46.161 20.2403 45.2333 19.9572C44.4911 19.7308 43.9702 19.7765 43.4206 19.9158C42.9639 20.0835 42.6355 20.4949 42.4641 21.0567C42.3498 21.4312 42.3283 21.834 42.3639 22.0495C42.4638 22.387 42.5921 22.6309 42.906 22.9314C43.22 23.2318 43.5981 23.6542 44.2545 24.1616C45.3176 24.9977 46.0097 25.7206 46.3307 26.3303C46.7158 27.0619 46.7014 27.7739 46.4728 28.5229Z" fill="#161616"/>
<path fill-rule="evenodd" clip-rule="evenodd" d="M55.2857 31.2122C54.9715 32.242 54.3719 32.8778 53.4584 33.2131C52.5447 33.5483 51.5313 33.5461 50.2326 33.1498C48.8411 32.7252 47.8778 32.2265 47.25 31.6256L47.65 30.3149C48.0566 30.6436 48.5561 31.0007 48.9913 31.2359C49.4267 31.4711 50.0474 31.7629 50.604 31.9327C51.5317 32.2158 52.2382 32.2267 52.6951 32.0591C53.2731 31.8261 53.6015 31.4147 53.7729 30.8528C53.8872 30.4784 53.9087 30.0756 53.7803 29.8317C53.6805 29.4942 53.4594 29.2221 53.174 28.8279C52.86 28.5274 52.3892 28.0768 51.7328 27.5694C50.8266 26.8835 50.1345 26.1606 49.9349 25.4856C49.6424 24.7823 49.6569 24.0704 49.9141 23.2277C50.1712 22.3852 50.7708 21.7494 51.5915 21.3858C52.4124 21.0222 53.3972 21.1181 54.4176 21.4295C55.5308 21.7692 56.4942 22.2678 57.3717 23.0473L56.6578 24.0576C55.8444 23.4 54.9739 22.9297 54.0462 22.6466C53.3041 22.4201 52.7831 22.4658 52.2336 22.6051C51.7768 22.7728 51.4484 23.1843 51.277 23.746C51.1627 24.1205 51.1412 24.5233 51.1768 24.7389C51.2767 25.0763 51.4051 25.3202 51.7189 25.6207C52.0329 25.9211 52.411 26.3436 53.0675 26.851C54.1305 27.6871 54.8227 28.4099 55.1436 29.0197C55.436 29.7229 55.5143 30.4632 55.2857 31.2122Z" fill="#161616"/>
<path d="M67.7674 31.8485C67.196 33.7209 66.1822 35.0491 64.8475 35.7675C63.5129 36.486 61.8571 36.5948 59.909 36.0003L56.1984 34.868L59.7125 23.3522L63.6087 24.5412C65.4641 25.1074 66.7127 26.0002 67.4474 27.2477C68.1821 28.4954 68.3102 30.0696 67.7674 31.8485ZM64.5847 30.9796C64.899 29.9497 64.9706 29.0505 64.6497 28.4408C64.4214 27.8595 63.8578 27.3804 63.0229 27.1256L62.0951 26.8425L60.1238 33.3026L60.7732 33.5008C61.7009 33.7839 62.4359 33.7011 63.0712 33.281C63.7992 32.8891 64.2419 32.1031 64.5847 30.9796Z" fill="#161616"/>
<path d="M72.0044 39.896C70.5201 39.4431 69.5212 38.7288 68.9434 37.6314C68.3371 36.6277 68.3088 35.3909 68.7659 33.893C69.2231 32.395 69.937 31.3847 70.9363 30.7686C71.9356 30.1525 73.163 30.1177 74.5545 30.5424C75.8533 30.9387 76.7595 31.6245 77.3016 32.5064C77.8438 33.3882 77.9006 34.5314 77.5006 35.8421L77.0721 37.2464L71.5987 35.5761C71.4559 36.0443 71.5271 36.4754 71.784 36.9632C72.0693 37.3572 72.476 37.686 73.0326 37.8559C73.5892 38.0258 74.0816 38.0736 74.574 38.1216C75.0664 38.1695 75.5874 38.1238 76.2297 38.0128L75.544 40.2598C74.9945 40.3991 74.5021 40.3511 73.9169 40.2749C73.3317 40.1987 72.7466 40.1225 72.0044 39.896ZM73.9902 32.7239C73.6191 32.6107 73.3123 32.6194 72.9483 32.8154C72.6128 32.9177 72.4057 33.2639 72.1701 33.7037L74.7677 34.4963C74.9105 34.0282 74.9035 33.719 74.7108 33.3533C74.7038 33.044 74.454 32.8655 73.9902 32.7239Z" fill="#161616"/>
<path fill-rule="evenodd" clip-rule="evenodd" d="M85.3209 40.787C85.0352 41.7233 84.5283 42.3873 83.7361 42.6573C82.944 42.9273 81.9306 42.9251 80.7246 42.5571C80.0752 42.3589 79.5186 42.189 79.0834 41.9539C78.648 41.7187 78.1201 41.4552 77.7133 41.1264L78.4561 38.6922C78.8629 39.021 79.3623 39.378 79.8618 39.7352C80.3898 39.9987 80.8251 40.2338 81.2889 40.3754C81.9383 40.5736 82.3665 40.4995 82.4522 40.2187C82.5093 40.0314 82.4451 39.9095 82.2882 39.7592C82.1313 39.609 81.6603 39.1583 80.9397 38.529C80.2191 37.8997 79.7767 37.3553 79.6128 36.896C79.4773 36.3429 79.4346 35.8181 79.6346 35.1628C79.8917 34.3202 80.37 33.7498 81.1622 33.4797C81.9545 33.2098 82.8465 33.2773 84.0525 33.6454C84.6091 33.8152 85.1371 34.0787 85.6652 34.3422C86.1932 34.6057 86.5998 34.9345 87.0708 35.3851L85.6359 37.0965C85.322 36.796 84.9153 36.4672 84.48 36.232C84.0448 35.9969 83.7022 35.79 83.424 35.7051C82.9601 35.5635 82.6532 35.5722 82.5675 35.8531C82.5104 36.0403 82.5746 36.1623 82.7316 36.3125C82.8885 36.4628 83.2952 36.7916 84.0158 37.4208C84.5795 37.8999 84.9862 38.2286 85.1788 38.5945C85.3713 38.9603 85.5639 39.326 85.571 39.6353C85.5139 39.8224 85.4638 40.3189 85.3209 40.787Z" fill="#161616"/>
<path d="M89.5622 32.8705C89.7051 32.4023 89.9121 32.0562 90.2476 31.9539C90.583 31.8516 91.0113 31.7776 91.5679 31.9475C92.1246 32.1173 92.5599 32.3525 92.6598 32.69C92.881 32.9622 92.8595 33.3649 92.7166 33.8331C92.4309 34.7693 91.76 34.974 90.6466 34.6342C89.5975 34.4165 89.2765 33.8067 89.5622 32.8705ZM89.224 44.946L86.1624 44.0117L88.8765 35.1174L91.9382 36.0517L89.224 44.946Z" fill="#161616"/>
<path d="M102.421 39.2506L101.964 40.7486L100.615 40.8487C100.715 41.1862 100.693 41.589 100.579 41.9635C100.293 42.8997 99.6936 43.5355 98.8727 43.899C98.0518 44.2626 96.9742 44.1384 95.6753 43.742C95.3042 43.6288 95.1186 43.5722 94.9617 43.4219C94.8403 43.4872 94.7832 43.6745 94.7546 43.7681C94.6974 43.9554 94.7617 44.0773 95.0114 44.2558C95.2612 44.4344 95.5395 44.5194 95.9106 44.6326L97.395 45.0856C99.3433 45.6801 100.107 46.8342 99.5925 48.5194C99.2496 49.6429 98.5286 50.3439 97.4295 50.6225C96.3303 50.9012 94.9171 50.8793 93.2471 50.3697C92.041 50.0017 91.0777 49.503 90.5711 48.8367C90.0359 48.2641 89.8648 47.4954 90.0933 46.7464C90.4076 45.7165 91.2856 45.1657 92.6702 45.2813C92.4204 45.1027 92.292 44.8588 92.0994 44.493C91.9996 44.1555 91.9639 43.9399 92.0496 43.6591C92.1354 43.3782 92.3138 43.1257 92.4637 42.9667C92.7064 42.8361 93.0705 42.6402 93.6201 42.5008C93.2133 42.172 92.9565 41.6843 92.7924 41.2249C92.657 40.6718 92.707 40.1754 92.907 39.52C93.1928 38.5838 93.7924 37.948 94.6133 37.5844C95.4341 37.2209 96.4476 37.2232 97.6537 37.5913C97.8392 37.6479 98.1176 37.7328 98.4601 37.9396C98.8312 38.0528 99.081 38.2314 99.2665 38.288L102.421 39.2506ZM92.684 47.2299C92.5983 47.5109 92.634 47.7263 92.8551 47.9986C93.0763 48.2708 93.4474 48.384 93.9113 48.5256C94.6535 48.7521 95.2388 48.8283 95.7598 48.7826C96.2808 48.737 96.5521 48.5127 96.6378 48.2318C96.7235 47.9509 96.6593 47.829 96.4095 47.6504C96.1598 47.4718 95.8172 47.265 95.2606 47.0951L94.0545 46.727C93.6834 46.6138 93.4693 46.6508 93.1623 46.6595C92.9196 46.7902 92.7697 46.9491 92.684 47.2299ZM95.7831 40.3977C95.4974 41.334 95.6329 41.887 96.2823 42.0852C96.5607 42.1701 96.8676 42.1614 97.0461 41.9088C97.2887 41.7782 97.4958 41.432 97.6386 40.9639C97.9243 40.0276 97.7889 39.4746 97.1394 39.2764C96.5828 39.1066 96.0688 39.4614 95.7831 40.3977Z" fill="#161616"/>
<path fill-rule="evenodd" clip-rule="evenodd" d="M108.057 45.3712C108.228 44.8095 108.278 44.3131 108.179 43.9755C108.079 43.6381 107.858 43.3659 107.486 43.2527C106.93 43.0828 106.502 43.1568 106.173 43.5683C105.873 43.8861 105.459 44.5785 105.145 45.6084L103.945 49.5406L100.883 48.6063L103.597 39.712L105.917 40.4198L105.945 41.6565L106.131 41.7131C106.523 41.4236 107.009 41.1624 107.53 41.1167C108.051 41.071 108.636 41.1472 109.193 41.3171C110.213 41.6285 110.87 42.1359 111.255 42.8675C111.64 43.5991 111.661 44.5267 111.347 45.5565L109.576 51.3612L106.514 50.427L108.057 45.3712Z" fill="#161616"/>
<path d="M119.373 54.1464L119.096 50.0703L114.55 48.6831L112.044 51.9098L110.745 51.5134L118.805 41.3849L119.919 41.7246L120.857 54.5991L119.373 54.1464ZM119.004 48.7117L118.79 44.7577C118.748 44.2329 118.734 43.6145 118.748 42.9025C118.512 43.3423 118.155 43.8475 117.77 44.4462L115.385 47.6075L119.004 48.7117Z" fill="#161616"/>
<path fill-rule="evenodd" clip-rule="evenodd" d="M129.114 57.1188L129.08 51.5818C129.073 51.2726 129.116 50.467 129.151 49.3522L129.059 49.3239C128.587 50.2035 128.202 50.8022 127.845 51.3073L124.725 55.8818L123.241 55.4288L123.55 46.1076L124.941 46.5323C124.841 48.8554 124.698 50.654 124.726 51.8907C124.661 53.0992 124.618 53.9047 124.504 54.2792L124.597 54.3075C124.775 54.0549 124.982 53.7088 125.218 53.269C125.454 52.8291 125.753 52.5113 125.932 52.2587L129.023 47.778L130.415 48.2027L130.385 53.6177C130.378 54.6389 130.335 55.4445 130.256 56.0345L130.349 56.0629C130.406 55.8756 130.585 55.6231 130.791 55.2765C130.998 54.9304 132.212 52.9469 134.311 49.3915L135.61 49.7878L130.662 57.6934L129.085 57.2124L129.114 57.1188Z" fill="#161616"/>
<path d="M139.782 60.3743L139.875 59.0723L139.783 59.044C139.147 59.4641 138.662 59.7253 138.141 59.7711C137.62 59.8168 137.127 59.7689 136.478 59.5707C135.643 59.3159 135.051 58.9304 134.73 58.3208C134.409 57.711 134.302 57.0644 134.559 56.2217C135.102 54.4429 136.751 54.0249 139.562 54.7807L141.075 55.1401L141.247 54.5784C141.447 53.9229 141.433 53.3046 141.24 52.9388C141.047 52.573 140.641 52.2441 139.991 52.0459C139.249 51.8195 138.45 51.7802 137.379 51.9652L137.322 50.8221C137.843 50.7764 138.271 50.7025 138.885 50.6851C139.378 50.733 139.963 50.8092 140.427 50.9508C141.447 51.2622 142.132 51.676 142.453 52.2854C142.774 52.895 142.823 53.7289 142.538 54.6652L140.738 60.5635L139.811 60.2807L139.782 60.3743ZM137.099 58.5321C137.934 58.7869 138.548 58.7696 139.155 58.4429C139.761 58.1164 140.118 57.6113 140.376 56.7687L140.604 56.0197L139.277 55.7169C138.256 55.4055 137.457 55.3663 136.907 55.5055C136.358 55.6449 136.029 56.0564 135.858 56.6181C135.715 57.0863 135.786 57.5174 136.007 57.7896C136.293 58.1836 136.635 58.3905 137.099 58.5321Z" fill="#161616"/>
<path fill-rule="evenodd" clip-rule="evenodd" d="M149.982 53.8666C150.353 53.9798 150.724 54.0931 150.974 54.2717L150.417 55.4321C150.074 55.2252 149.796 55.1403 149.518 55.0554C148.868 54.8572 148.133 54.9399 147.498 55.3601C146.862 55.7803 146.356 56.4443 146.098 57.287L144.699 61.8745L143.4 61.4782L146.028 52.8648L147.049 53.1762L146.749 54.8244L146.841 54.8527C147.291 54.3759 147.898 54.0494 148.355 53.8817C148.904 53.7424 149.425 53.6967 149.982 53.8666Z" fill="#161616"/>
<path d="M156.081 64.1198C155.174 64.7642 154.104 64.9493 152.898 64.5812C151.784 64.2415 151.064 63.6121 150.643 62.665C150.223 61.7181 150.287 60.5097 150.716 59.1053C151.144 57.7009 151.766 56.6624 152.643 56.1113C153.521 55.5605 154.498 55.3472 155.612 55.6869C156.725 56.0267 157.51 56.7779 157.902 57.8187L157.995 57.847L158.102 57.1633L159.388 52.9502L160.687 53.3466L156.944 65.6113L155.924 65.2999L156.081 64.1198ZM153.426 63.5143C154.354 63.7974 154.996 63.6865 155.603 63.3598C156.117 63.005 156.559 62.219 156.874 61.1892L156.959 60.9083C157.331 59.6912 157.402 58.792 157.11 58.0886C156.91 57.4136 156.318 57.0282 155.39 56.7451C154.648 56.5186 154.006 56.6296 153.342 57.1434C152.799 57.5919 152.264 58.3496 151.921 59.4731C151.578 60.5966 151.507 61.4958 151.706 62.1708C152.12 62.8088 152.591 63.2595 153.426 63.5143Z" fill="#161616"/>
<path fill-rule="evenodd" clip-rule="evenodd" d="M165.914 65.7901C165.657 66.6328 165.208 67.1096 164.415 67.3796C163.716 67.6778 162.824 67.6103 161.71 67.2705C160.597 66.9308 159.727 66.4607 159.192 65.888L159.564 64.6709C159.878 64.9714 160.284 65.3002 160.719 65.5351C161.154 65.7702 161.589 66.0054 162.053 66.147C162.703 66.3452 163.288 66.4214 163.716 66.3475C164.144 66.2734 164.444 65.9556 164.587 65.4874C164.701 65.113 164.601 64.7754 164.38 64.5033C164.188 64.1375 163.717 63.6867 162.967 63.1511C162.218 62.6153 161.747 62.1647 161.526 61.8925C161.213 61.5922 161.113 61.2548 161.013 60.9173C160.913 60.5798 160.935 60.177 161.049 59.8025C161.249 59.1471 161.699 58.6702 162.399 58.372C163.097 58.0735 163.896 58.1127 164.917 58.4242C165.845 58.7073 166.715 59.1777 167.436 59.8069L166.658 60.6953C165.937 60.0659 165.159 59.6239 164.51 59.4258C163.86 59.2276 163.368 59.1796 163.033 59.2819C162.697 59.3842 162.426 59.6084 162.312 59.983C162.254 60.1703 162.261 60.4794 162.326 60.6013C162.361 60.8169 162.518 60.9672 162.739 61.2393C162.961 61.5115 163.367 61.8403 164.024 62.3476C164.93 63.0336 165.465 63.6063 165.722 64.094C166.043 64.7037 166.086 65.2284 165.914 65.7901Z" fill="#161616"/>
</svg>
