<svg width="27" height="27" viewBox="0 0 27 27" fill="none" xmlns="http://www.w3.org/2000/svg">
<path d="M13.5815 1.31368e-06C6.08179 1.64151e-06 -9.16018e-07 6.04395 -5.90104e-07 13.5C-2.64189e-07 20.956 6.08179 27 13.5815 27C20.3614 27 25.9814 22.063 27 15.6087L17.5065 15.6087L17.5065 19.0377L13.5815 19.0377L13.5815 15.6087L10.5908 15.6087C7.18597 15.6087 5.30629 13.5945 5.30629 10.5098C5.30629 9.03285 5.57113 7.48845 5.57113 7.48845L8.91353 7.48845L8.91353 9.18945C8.91353 10.8675 9.96066 11.39 11.035 11.39L13.5828 11.39L13.5828 7.6464L17.5079 8.24445L17.5079 11.39L26.9986 11.39C25.98 4.93695 20.3614 1.01732e-06 13.5828 1.31362e-06L13.5815 1.31368e-06Z" fill="black"/>
</svg>
