<svg width="27" height="28" viewBox="0 0 27 28" fill="none" xmlns="http://www.w3.org/2000/svg">
<path fill-rule="evenodd" clip-rule="evenodd" d="M4.07295 26.8814C5.94945 28 8.4645 28 13.5 28C18.5342 28 21.0506 28 22.9271 26.8814C24.1726 26.1395 25.2059 25.0679 25.9214 23.7762C27 21.8302 27 19.222 27 14C27 8.7794 27 6.1698 25.9214 4.2238C25.2059 2.93211 24.1726 1.86055 22.9271 1.1186C21.0506 9.872e-07 18.5355 3.00448e-06 13.5 3.22459e-06C8.46585 3.44464e-06 5.94945 1.64729e-06 4.07295 1.1186C2.82739 1.86055 1.7941 2.93211 1.07865 4.2238C-9.54228e-07 6.1698 -8.4022e-07 8.778 -6.11959e-07 14C-3.8376e-07 19.2206 -2.69691e-07 21.8302 1.07865 23.7762C1.7941 25.0679 2.82739 26.1395 4.07295 26.8814ZM24.219 8.1312C24.3405 9.527 24.3432 11.34 24.3432 14C24.3432 16.66 24.3405 18.473 24.219 19.8688C24.1016 21.2268 23.8869 21.9198 23.6183 22.4056C23.137 23.2745 22.4419 23.9953 21.6041 24.4944C21.1356 24.7744 20.4674 24.9956 19.1579 25.1174C17.8119 25.2434 16.0637 25.2462 13.4987 25.2462C10.9337 25.2462 9.1854 25.2434 7.83945 25.1174C6.52995 24.9956 5.8617 24.773 5.39325 24.4944C4.5554 23.9953 3.86033 23.2745 3.37905 22.4056C3.10905 21.9198 2.89575 21.2268 2.7783 19.8688C2.6568 18.473 2.6541 16.66 2.6541 14C2.6541 11.34 2.6568 9.527 2.7783 8.1312C2.89575 6.7732 3.1104 6.0802 3.37905 5.5958C3.861 4.7264 4.55625 4.0054 5.39325 3.5056C5.8617 3.227 6.52995 3.0044 7.83945 2.8826C9.1854 2.7566 10.9336 2.7538 13.4986 2.7538C16.0637 2.7538 17.8119 2.7566 19.1579 2.8826C20.4674 3.0044 21.1356 3.227 21.6027 3.5056C22.441 4.00456 23.1366 4.72538 23.6183 5.5944C23.8869 6.0802 24.1016 6.7732 24.219 8.1312ZM6.45975 8.5848C5.97836 8.5848 5.51669 8.38649 5.1763 8.03349C4.83591 7.68049 4.64467 7.20172 4.64467 6.7025C4.64467 6.20329 4.83591 5.72452 5.1763 5.37152C5.51669 5.01852 5.97836 4.8202 6.45975 4.8202C6.94096 4.8202 7.40246 5.01844 7.74272 5.37131C8.08299 5.72418 8.27415 6.20277 8.27415 6.7018C8.27415 7.20083 8.08299 7.67943 7.74272 8.03229C7.40246 8.38516 6.94096 8.5834 6.45975 8.5834L6.45975 8.5848ZM6.45975 14C6.45975 14.9586 6.64182 15.9078 6.99555 16.7934C7.34929 17.6791 7.86777 18.4838 8.5214 19.1616C9.17502 19.8394 9.95098 20.3771 10.805 20.744C11.659 21.1108 12.5743 21.2996 13.4987 21.2996C14.423 21.2996 15.3383 21.1108 16.1923 20.744C17.0463 20.3771 17.8223 19.8394 18.4759 19.1616C19.1295 18.4838 19.648 17.6791 20.0017 16.7934C20.3555 15.9078 20.5376 14.9586 20.5376 14C20.5376 12.0638 19.7959 10.207 18.4757 8.83791C17.1555 7.46884 15.365 6.6997 13.498 6.6997C11.631 6.6997 9.84042 7.46884 8.52024 8.83791C7.20007 10.207 6.4584 12.0638 6.4584 14L6.45975 14ZM13.5 18.3596C12.9479 18.3596 12.4013 18.2468 11.8912 18.0277C11.3812 17.8087 10.9178 17.4875 10.5274 17.0827C10.137 16.6779 9.82737 16.1973 9.6161 15.6683C9.40484 15.1394 9.2961 14.5725 9.2961 14C9.2961 13.4275 9.40484 12.8606 9.6161 12.3317C9.82737 11.8027 10.137 11.3221 10.5274 10.9173C10.9178 10.5125 11.3812 10.1913 11.8912 9.97226C12.4013 9.75317 12.9479 9.6404 13.5 9.6404C14.6149 9.6404 15.6842 10.0997 16.4726 10.9173C17.261 11.7349 17.7039 12.8438 17.7039 14C17.7039 15.1562 17.261 16.2651 16.4726 17.0827C15.6842 17.9003 14.6149 18.3596 13.5 18.3596Z" fill="black"/>
</svg>
